<?xml version="1.0" encoding="utf-8"?><!-- Uploaded to: SVG Repo, www.svgrepo.com, Generator: SVG Repo Mixer Tools -->
<svg width="800px" height="800px" viewBox="0 0 100 100" xmlns="http://www.w3.org/2000/svg" xmlns:xlink="http://www.w3.org/1999/xlink" aria-hidden="true" role="img" class="iconify iconify--gis" preserveAspectRatio="xMidYMid meet"><path d="M72.408.004a3 3 0 0 0-1.396 5.584c12.322 7.47 19.384 20.889 18.453 34.95c-.931 14.06-9.711 26.496-22.924 32.36c-13.213 5.865-28.677 4.158-40.203-4.423a3 3 0 1 0-3.584 4.812a45.276 45.276 0 0 0 8.336 4.916C24.33 80.083 20 83.117 20 87.143C20 94.243 32.381 100 50 100s30-5.757 30-12.857c0-3.97-4.205-6.98-10.805-8.864c15.069-6.784 25.181-21.113 26.256-37.345c1.08-16.312-7.147-31.88-21.33-40.477a3 3 0 0 0-1.713-.453zM35.641 79.98A46.524 46.524 0 0 0 46.5 82.176v2.07a3.5 2.725 0 1 0 7 0v-2.031a46.45 46.45 0 0 0 11.139-2.18C70.315 81.282 74 83.226 74 85.43c0 3.787-10.745 6.857-24 6.857s-24-3.07-24-6.857c0-2.234 3.786-4.204 9.64-5.45z" ></path><path d="M63.79 5.387c-17.9-7.26-38.324 1.378-45.584 19.276c-7.26 17.899 1.378 38.322 19.277 45.582c17.867 7.246 38.245-1.35 45.54-19.183a1.05 1.05-.35 0 0 .043-.094a1.05 1.05-.35 0 0 .032-.087c7.196-17.878-1.439-38.247-19.309-45.494zm-1 1.867c.583.3 1.155.62 1.706.977c-.537 1.448-1.3 4.248-4.056 3.02c-2.351-.803-6.65 3.534-6.414-.759c.934-1.872 5.841-4.418 1.248-4.632c-1.357.888-2.065 3.274-3.54 2.36c-1.388 1.806-2.482-.05-2.44-1.059c-.943.138-.08 1.82-1.18 2.084c3.139-.658-.638 2.157.382 3.688c-1.87.747-.803 5.031-3.305 3.042c-2.448-1.478 3.375-2.479-.389-2.401c-2.198-.365-2.556.829-1.172 1.743c-1.868.721-3.62.091-4.191-.806c-2.587.477-5.205 1.303-7.668 2.52c-2.532-.89-4.015 4.373-5.002 3.375c.494-1.596 2.032-3.873.3-4.156c-.346-.293-.78-.266-1.239-.043C34.75 5.958 49.471 1.956 62.79 7.254zm4.278 2.07c.395.227.783.462 1.166.704c.465.434.707.864-.167.63l-.572-.495c-.43-.548-.518-.787-.427-.84zm6.348 4.757c9.427 9.046 12.918 23.244 7.705 36.098c-3.443 8.487-10.017 14.751-17.846 18.01c1.343-1.482 2.464-3.284 4.247-4.258c1.825-2.315-.101-5.28 2.424-7.08c-1.403-.382-3.124-2.937-5.485-1.362c-1.7-.663-4.123.611-5.283-1.038c-1.585-2.085-3.392-4.505-2.957-7.276c1.055-1.87 1.474-4.646 2.404-6.4c2.217-2.787 5.504-3.67 7.293-6.587c.292-.102 2.692-.785 2.792-.813c2.452.326 6.916-2.013 6.793 2.096c.32.511 2.724 3.26 2.94 1.948c.835-1.848 5.429 1.201 3.853-2.298c-.202-.265-1.097-.971-1.844-1.056c-.303-.047-2.026.787-2.324-1.392c-.972-2.089-1.665 3.865-2.64.247c2.448.158-1.43-4.332-.868-2.408c.526 3.56-1.863.394-.487-1.355c-2.593-1.442-3.347 4.219-6.227 3.968c.016.01.036.014.052.023l-.47-.123l-.714-.216c-.37-.9-2.178-1.727-.878-3.368c-.345-2.482 1.117-2.781 3.095-1.759c2.61-.486-3.128-4.663 1.253-3.693c-1.842-.612-2.62-.849-1.955-3.157c-.827 2.862-3.68-.29-1.115-1.153c.923-.193-1.066-2.157 1.082-1.681c1.373.474 1.813 6.997 3.625 3.926c1.032.078-.025-2.387.435-2.309c-2.688-.207-1.688-4.666-1.072-6.238c.776.35 1.6.61 2.172.704zM50.913 6.182c-.18-.049-.56-.027-1.21.13c-.741.015-2.677 1.17-.698.537c1.184.266 2.448-.521 1.908-.667zm22.351 10.015c-.318-.1.358 1.115.203.133a.669.669 0 0 0-.203-.133zM47.004 5.979c-.254-.125-.689-.165-1.358-.067c-1.83-.567-3.5 3.284-3.354 3.07c.665-.136 1.56-1.016 2.212-.679c1.317.382 3.605-1.78 2.5-2.324zm16.342 6.71c1.297.464 2.886 2.293-.023 1.513c-.448-.184-.91-.464-1.116-.927c.019-.727.549-.797 1.139-.586zm9.604 4.485c-.512-.264 1.314 2.573.787.774c-.425-.487-.668-.713-.787-.774zm-5.738-1.163c.18-.005.11.97-.166.194c.068-.14.124-.193.166-.194zm1.77 1.266c.11.084.184 1.221-.11.38c.032-.319.073-.408.11-.38zm5.55 2.259c-.269-.108-.362.18.155 1.222c-.202 1.175-.97 1.47.63.984c.595-.745-.339-2.027-.786-2.206zM37.78 9.218c-.364-.2-.734 1.68.233.533c-.066-.33-.15-.487-.233-.533zm5.711 3.209c-.239-.1-.246.557.304.41c-.12-.259-.224-.377-.304-.41zm36.805 15.198c-.519-.143-.279 3.83.716 2.468c2.141.507.515-2.152-.235-1.594c-.2-.588-.361-.84-.48-.874zM37.174 10.846c-.322-.054-1.234 1.683.094.147c-.014-.095-.048-.14-.094-.147zm38.488 17.74c-.113-.01.015.345.605 1.32c.34.032 1.27 2.032 1.238 1.108c-.34-.798-1.441-2.193-1.78-2.4a.169.169 0 0 0-.063-.027zM35.679 12.39c-.294-.194-1.362.643.04.326c.055-.181.028-.281-.04-.326zm43.762 19.436c-.197.003.133 1.417.395.6c-.205-.446-.33-.602-.395-.6zm-7.272-1.202c.429.1-.565 1.86-.978.625c.534-.508.835-.658.978-.625zm7.996 4.004c.462.121.334 1.521-.65.445c.275-.383.495-.485.65-.445zm-24.43-7.809c.456.235.057.966-.76.013c.36-.114.607-.09.76-.013zm1.231 1.068c.164.151-.497.692-.494.037c.293-.095.44-.087.494-.037zm3.814 5.382c.296.044-.216.961-.347.14c.168-.114.279-.15.347-.14zm-32.65-12.92c.178.07.036 1.556-.29.546c.135-.436.23-.57.29-.546zm-.786.928c.165.102-.61 1.765-.546.581c.33-.476.49-.615.546-.581zm-3.342-.748c.284.351-1.833 2.619-1.71 3.432c.48 2.415-2.978 4.98-.277 6.84c1.877-1.61 2.105.635 2.438.483c1.035.222.756 2.887 2.62 3.269c2.095.603-.5 4.15 2.063 5.698c2.954 2.327.788 6.672 4.248 8.724c1.661 2.16 7.54 5.194 4.206 7.923c-3.332.02-3.61 5.962-7.402 3.24c-1.034-.108-1.814.663-2.756 1.009a32.912 32.912 0 0 1-7.3-11.024c-.621-3.194-2.148-6.179-2.041-9.514c-1.084-3.79 1.999-6.14 2.766-9.322c.512-1.643-.908.736-.621-1.495c-.136-1.97.467-4.255.794-6.3a32.977 32.977 0 0 1 1.779-3.212a1.87 1.87 0 0 0-.063.662c.8-.433 1.16-.53 1.256-.413zm1.308.56c.172.092.398.261.69.525c-.088 2.06 1.421 3.353.605 3.945c1.056 1.013 1.922 4.145-.613 1.873c-1.65-1.595 1.297-1.23-.78-2.803c.307-1.018-1.109-4.18.098-3.54zm36.576 15.413c.295.12.044 1.404-.741.842c.36-.71.607-.897.741-.842zM27.344 23.109c.116.086.177.525-.118.907l-.108-.158c-.002-.537.088-.746.174-.763a.065.065 0 0 1 .052.014zM59.43 36.186c.858.292 2.073 1.58.122.864l-.647-.263l-.093-.1c-.088-.56.229-.634.618-.501zm-34.873-11.39c.344.23.94 1.877-.131.937c-.13-.855-.025-1.043.13-.938zm3.536 3.562c.492.131.611 1.644-.58.48c.21-.414.417-.524.58-.48zm1.318 3.287c.16.151-.829 3.08-.787 1.523l.165-.48c.389-.836.57-1.093.622-1.043zm21.978 11.13c.34.183 1.17 1.374.069.65c-.276-.607-.223-.732-.069-.65zm1.58 1.106c.325.126-.192 1.059-.373.076c.18-.09.299-.105.373-.076zm-.635.737c.527.12-.26.944-.596.059c.283-.077.475-.087.596-.06zm-.888-.214c.175.093-.288.934-.422.24c.236-.22.364-.271.422-.24zM67.95 58.13c.175.093-.288.934-.422.24c.236-.22.364-.271.422-.24z" ></path></svg>
